<svg width="32" height="20" viewBox="0 0 32 20" fill="none" xmlns="http://www.w3.org/2000/svg">
    <mask id="mask0_3201_17411" style="mask-type:alpha" maskUnits="userSpaceOnUse" x="0" y="0" width="16" height="20">
        <path fill-rule="evenodd" clip-rule="evenodd" d="M15.3644 0H2.08246C0.93294 0 0 0.933329 0 2.08333V17.9167C0 19.0667 0.93294 20 2.08246 20H15.3644C12.131 17.8502 10 14.1739 10 10C10 5.82606 12.131 2.14984 15.3644 0Z" fill="#F74249"/>
    </mask>
    <g mask="url(#mask0_3201_17411)">
        <path fill-rule="evenodd" clip-rule="evenodd" d="M17.9175 20H2.08246C0.93294 20 0 19.0667 0 17.9167V2.08333C0 0.933329 0.93294 0 2.08246 0H17.9175C19.0671 0 20 0.933329 20 2.08333V17.9167C20 19.0667 19.0671 20 17.9175 20ZM17.0469 18.1184C17.0469 18.5429 17.3897 18.8899 17.8142 18.8899C18.2387 18.8899 18.5857 18.5429 18.5857 18.1184C18.5857 17.6939 18.2387 17.3511 17.8142 17.3511C17.3897 17.3511 17.0469 17.6939 17.0469 18.1184ZM17.8142 1.11015C18.2387 1.11015 18.5857 1.45708 18.5857 1.88156C18.5857 2.30607 18.2387 2.64891 17.8142 2.64891C17.3897 2.64891 17.0469 2.30606 17.0469 1.88156C17.0469 1.45708 17.3897 1.11015 17.8142 1.11015ZM18.5811 10C18.5811 5.25716 14.7402 1.42044 10.0015 1.42044C5.26679 1.42044 1.42188 5.25716 1.42188 10C1.42188 14.7347 5.26679 18.5796 10.0015 18.5796C14.7402 18.5796 18.5811 14.7347 18.5811 10ZM2.1855 1.11015C2.60998 1.11015 2.95282 1.45708 2.95282 1.88156C2.95282 2.30607 2.60997 2.64891 2.1855 2.64891C1.76099 2.64891 1.41406 2.30606 1.41406 1.88156C1.41406 1.45708 1.76099 1.11015 2.1855 1.11015ZM2.95282 18.1184C2.95282 17.6939 2.60998 17.3511 2.1855 17.3511C1.76099 17.3511 1.41406 17.6939 1.41406 18.1184C1.41406 18.5429 1.76099 18.8899 2.1855 18.8899C2.60997 18.8899 2.95282 18.5429 2.95282 18.1184Z" fill="black"/>
        <path fill-rule="evenodd" clip-rule="evenodd" d="M8.31418 3.94688C8.98358 4.79993 9.46929 5.7591 9.75501 6.75502L9.75642 6.75495L9.75643 6.75495C9.8376 6.75091 9.91878 6.74688 10.004 6.74688C10.7958 6.74688 11.5264 7.03259 12.0897 7.50606C12.4897 6.73054 12.7346 5.91015 12.8285 5.08565C12.906 4.35911 12.8693 3.6285 12.7264 2.94688C12.6979 2.80809 12.5958 2.69788 12.4693 2.6489C11.6652 2.35095 10.9632 2.25708 10.004 2.25708C9.25704 2.25708 8.53869 2.35912 7.86113 2.55503C7.56318 2.64075 7.47337 3.01626 7.68971 3.23666C7.91419 3.46117 8.12236 3.69788 8.31418 3.94688ZM3.91335 8.43677C3.60314 8.47757 3.29293 8.53881 2.98681 8.62042C2.68477 8.69797 2.40722 8.42859 2.48069 8.12656C2.86436 6.58369 3.71335 5.2245 4.86435 4.20409C4.97456 4.10613 5.12558 4.0735 5.26437 4.11839C5.92559 4.33471 6.56641 4.6694 7.15416 5.10205C7.81947 5.58777 8.40723 6.21635 8.88069 6.94287C8.08476 7.23676 7.43171 7.83266 7.06844 8.59184C6.06844 8.34287 4.98682 8.28572 3.91335 8.43677ZM10.2568 13.2407C10.5426 14.2366 11.0283 15.1999 11.6977 16.0529C11.8895 16.2978 12.0936 16.5346 12.318 16.7631C12.5344 16.9835 12.4446 17.355 12.1466 17.4407C11.4691 17.6366 10.7507 17.7427 10.0079 17.7427C9.04868 17.7427 8.34254 17.6488 7.53847 17.3509C7.41194 17.3019 7.3099 17.1876 7.28133 17.0529C7.13845 16.3672 7.10174 15.6407 7.18337 14.9142C7.27724 14.0897 7.52213 13.2693 7.92215 12.4937C8.48542 12.9713 9.21602 13.2529 10.0038 13.2529C10.0895 13.2529 10.1752 13.2489 10.2568 13.2407ZM16.0923 11.5633C16.3985 11.5184 16.7087 11.4571 17.0148 11.3796C17.3168 11.302 17.5944 11.5714 17.5209 11.8735C17.1372 13.4163 16.2883 14.7755 15.1332 15.7959C15.023 15.8898 14.8719 15.9225 14.7332 15.8776C14.072 15.6571 13.4311 15.3306 12.8475 14.898C12.1862 14.4082 11.5944 13.7837 11.125 13.0531C11.9209 12.7592 12.5699 12.1633 12.9332 11.4082C13.9372 11.6571 15.0189 11.7143 16.0923 11.5633ZM13.2511 9.99982C13.2511 10.1917 13.2348 10.3794 13.2021 10.559C14.0675 10.5182 14.9042 10.3141 15.6674 9.9876C16.3327 9.69371 16.9409 9.30189 17.4593 8.83657C17.5654 8.7427 17.6144 8.59166 17.5858 8.4529C17.2715 6.88554 16.4838 5.49371 15.3776 4.42841C15.1532 4.21207 14.7817 4.3182 14.7001 4.61615C14.6144 4.92227 14.5123 5.22025 14.3981 5.51003C13.994 6.51412 13.4021 7.42023 12.6797 8.16309C13.0389 8.68964 13.2511 9.3182 13.2511 9.99982ZM6.79795 9.44084C6.76529 9.62043 6.74897 9.8082 6.74897 10C6.74897 10.6817 6.9612 11.3102 7.32038 11.8327C6.60201 12.5796 6.01019 13.4858 5.60609 14.4898C5.48773 14.7796 5.38978 15.0735 5.30405 15.3755C5.22244 15.6735 4.851 15.7837 4.62651 15.5674C3.52038 14.5021 2.72854 13.1102 2.41428 11.547C2.38571 11.4041 2.43468 11.2572 2.54081 11.1592C3.05916 10.698 3.66732 10.3061 4.33671 10.0123C5.09589 9.68575 5.93264 9.48573 6.79795 9.44084Z" fill="#F7931A"/>
        <path d="M10.0019 12.4438C8.65665 12.4438 7.5625 11.3493 7.5625 10.004C7.5625 8.65876 8.65665 7.56421 10.0019 7.56421C11.3472 7.56421 12.4417 8.65876 12.4417 10.004C12.4417 11.3493 11.3472 12.4438 10.0019 12.4438Z" fill="black"/>
    </g>
    <circle cx="22" cy="10" r="10" fill="#F7931A"/>
    <path fill-rule="evenodd" clip-rule="evenodd" d="M23.25 2.5L18.25 11.25H22L20.75 17.5L25.75 8.75H22L23.25 2.5Z" fill="white"/>
</svg>
